<!DOCTYPE svg PUBLIC "-//W3C//DTD SVG 1.1//EN" "http://www.w3.org/Graphics/SVG/1.1/DTD/svg11.dtd">
<svg xmlns="http://www.w3.org/2000/svg" xmlns:xlink="http://www.w3.org/1999/xlink" xmlns:jfreesvg="http://www.jfree.org/jfreesvg/svg" width="440" height="440" text-rendering="auto" shape-rendering="auto">
<defs></defs>
<rect x="0" y="0" width="600" height="600" style="fill: rgb(255,255,255); fill-opacity: 1.0" transform="matrix(1,0,0,1,-30,-30)" /><rect x="0" y="0" width="600" height="600" style="fill: rgb(255,255,255); fill-opacity: 1.0" transform="matrix(1,0,0,1,-30,-30)" /><ellipse cx="190" cy="250" rx="100" ry="100" style="fill: rgb(31,120,180); fill-opacity: 0.6" transform="matrix(1,0,0,1,-30,-30)" /><ellipse cx="190" cy="250" rx="100" ry="100" style="stroke-width: 1.0;stroke: rgb(0,0,0);stroke-opacity: 1.0;stroke-linecap: round;stroke-linejoin: round;; fill: none" transform="matrix(1,0,0,1,-30,-30)" /><g transform="matrix(1,0,0,1,-30,-30)"><text x="146.48" y="255.3" style="fill: rgb(0,0,0); fill-opacity: 1.0; font-family: sans-serif; font-size: 14px;" >6</text></g><g transform="matrix(1,0,0,1,-30,-30)"><text x="74.23" y="330" style="fill: rgb(0,0,0); fill-opacity: 1.0; font-family: sans-serif; font-size: 14px; font-weight: bold;" >SetA</text></g><ellipse cx="310" cy="250" rx="100" ry="100" style="fill: rgb(230,85,13); fill-opacity: 0.6" transform="matrix(1,0,0,1,-30,-30)" /><ellipse cx="310" cy="250" rx="100" ry="100" style="stroke-width: 1.0;stroke: rgb(0,0,0);stroke-opacity: 1.0;stroke-linecap: round;stroke-linejoin: round;; fill: none" transform="matrix(1,0,0,1,-30,-30)" /><g transform="matrix(1,0,0,1,-30,-30)"><text x="346.48" y="255.3" style="fill: rgb(0,0,0); fill-opacity: 1.0; font-family: sans-serif; font-size: 14px;" >6</text></g><g transform="matrix(1,0,0,1,-30,-30)"><text x="390" y="330" style="fill: rgb(0,0,0); fill-opacity: 1.0; font-family: sans-serif; font-size: 14px; font-weight: bold;" >SetB</text></g><g transform="matrix(1,0,0,1,-30,-30)"><text x="246.48" y="255.3" style="fill: rgb(0,0,0); fill-opacity: 1.0; font-family: sans-serif; font-size: 14px;" >6</text></g></svg>
